<svg width="21" height="21" viewBox="0 0 21 21" fill="none" xmlns="http://www.w3.org/2000/svg">
<g clip-path="url(#clip0_657_27)">
<path fill-rule="evenodd" clip-rule="evenodd" d="M4.01056 6.48965C4.01056 2.90555 6.91604 6.10352e-05 10.5002 6.10352e-05C14.0843 6.10352e-05 16.9897 2.90555 16.9897 6.48965V7.29173C16.9897 9.21722 17.2511 10.9242 17.6496 12.1194C17.8503 12.7217 18.0701 13.1459 18.2716 13.4016C18.4208 13.5909 18.5098 13.6291 18.5302 13.6355C19.0092 13.6405 19.3959 14.0303 19.3959 14.5104V14.6928C19.3959 15.1761 19.0042 15.5678 18.5209 15.5678H2.47931C1.99606 15.5678 1.60431 15.1761 1.60431 14.6928V14.5104C1.60431 14.0303 1.99107 13.6405 2.47005 13.6355C2.49047 13.6291 2.5795 13.5909 2.72869 13.4016C2.93021 13.1459 3.14994 12.7217 3.35069 12.1194C3.74911 10.9242 4.01056 9.21722 4.01056 7.29173V6.48965ZM2.46552 13.6367L2.46788 13.6361L2.4665 13.6365L2.46552 13.6367Z" fill="#512A00"/>
<path d="M8.09388 17.0626C7.76352 17.0626 7.46133 17.2486 7.31259 17.5435C7.16384 17.8386 7.19392 18.1922 7.39032 18.4577C8.11842 19.4425 9.21832 20.1251 10.5001 20.1251C11.7819 20.1251 12.8819 19.4425 13.6099 18.4577C13.8064 18.1922 13.8364 17.8386 13.6876 17.5435C13.5389 17.2486 13.2368 17.0626 12.9064 17.0626H8.09388Z" fill="#512A00"/>
</g>
<defs>
<clipPath id="clip0_657_27">
<rect width="21" height="21" fill="white"/>
</clipPath>
</defs>
</svg>
